<?xml version="1.0" encoding="UTF-8"?>
<svg version="1.1" xmlns="http://www.w3.org/2000/svg" width="398" height="220">
<path d="M0 0 C3.44498764 3.3615739 3.47167282 6.58813299 3.6875 11.25 C3.78611328 13.14492188 3.78611328 13.14492188 3.88671875 15.078125 C3.94279297 16.52445313 3.94279297 16.52445313 4 18 C4.58580338 17.99111755 5.17160675 17.98223511 5.77516174 17.9730835 C11.89110524 17.88435378 18.00686484 17.82415968 24.12329102 17.78027344 C26.40364005 17.7602008 28.68393789 17.73293657 30.96411133 17.69824219 C34.24833842 17.64953391 37.53188292 17.62698714 40.81640625 17.609375 C41.83021866 17.58872986 42.84403107 17.56808472 43.88856506 17.54681396 C51.42844745 17.54444222 55.58693479 19.00497801 61.328125 24.04296875 C69.43880301 33.09329848 70.74947731 41.10324372 70.34765625 52.96484375 C70.02654424 57.96337233 68.75166354 61.80861158 66 66 C65.55269531 66.71671875 65.10539062 67.4334375 64.64453125 68.171875 C61.37322954 72.97796973 58.22241379 75.48922414 53 78 C52.01 78.495 52.01 78.495 51 79 C39.90024085 80.21341453 28.15348956 76.87531665 19.3671875 69.9140625 C18.13355469 68.78097656 18.13355469 68.78097656 16.875 67.625 C16.04742187 66.87476562 15.21984375 66.12453125 14.3671875 65.3515625 C12.03055446 63.03035278 10.00255514 60.61162721 8 58 C4.07137943 59.27414721 2.09467178 60.4091341 0 64 C-2.24810184 68.94582405 -2.24870012 72.82976232 -1 78 C0.80636478 82.78686667 2.43134148 84.76163959 7 87 C9.90749686 87.43516019 9.90749686 87.43516019 13.0078125 87.37109375 C14.16023438 87.38849609 15.31265625 87.40589844 16.5 87.42382812 C18.89321781 87.43285427 21.28645303 87.43813816 23.6796875 87.43945312 C36.37091285 87.64392287 45.53293329 91.06745216 54.80078125 99.671875 C66.22979942 111.53169873 70.56225691 127.74309793 70.41772461 143.82543945 C70.05694263 153.79048648 66.96239766 160.9741323 60.01953125 168.1875 C54.08939673 173.50970971 47.86615336 174.14006216 40.1875 174.0625 C39.02605469 174.05347656 37.86460938 174.04445312 36.66796875 174.03515625 C35.34732422 174.01775391 35.34732422 174.01775391 34 174 C34.05220703 175.33804688 34.05220703 175.33804688 34.10546875 176.703125 C34.13253906 177.87359375 34.15960938 179.0440625 34.1875 180.25 C34.23970703 181.99023438 34.23970703 181.99023438 34.29296875 183.765625 C33.97727813 187.25084947 33.50069655 188.59839865 31 191 C28 191.5 28 191.5 25 191 C22.49930345 188.59839865 22.02272187 187.25084947 21.70703125 183.765625 C21.74183594 182.60546875 21.77664062 181.4453125 21.8125 180.25 C21.85310547 178.49429688 21.85310547 178.49429688 21.89453125 176.703125 C21.92933594 175.81109375 21.96414062 174.9190625 22 174 C20.71424072 174.01571045 19.42848145 174.0314209 18.10375977 174.04760742 C13.30108994 174.10219902 8.49844717 174.13645594 3.69555664 174.16479492 C1.62291846 174.17981521 -0.44968829 174.20023747 -2.5222168 174.22631836 C-5.51358836 174.26300024 -8.5045371 174.27979435 -11.49609375 174.29296875 C-12.41208847 174.30845261 -13.32808319 174.32393646 -14.27183533 174.33988953 C-22.92147669 174.34211615 -30.11194288 172.64922974 -36.50390625 166.58203125 C-42.75360049 159.97334674 -45.01929414 151.42715725 -45.375 142.4375 C-44.93210902 132.62303578 -41.61430424 124.29199935 -35 117 C-29.10941063 112.43720741 -23.23207453 111.3909832 -16 112 C-3.48650355 114.41395109 7.96232338 120.22569374 15.875 130.5 C16.57625 131.325 17.2775 132.15 18 133 C19.32 133 20.64 133 22 133 C22.28875 132.401875 22.5775 131.80375 22.875 131.1875 C24 129 24 129 26 126 C27.47483421 119.96983109 27.06710515 114.80758114 25 109 C22.69966669 106.10603229 21.51696795 105.17232265 18 104 C16.06439654 103.89617932 14.12577459 103.84498171 12.1875 103.82421875 C11.02863281 103.80037109 9.86976562 103.77652344 8.67578125 103.75195312 C6.25668045 103.70953531 3.83736049 103.67799095 1.41796875 103.65820312 C-8.8212232 103.41548799 -17.68866052 101.65018449 -25.6875 94.875 C-26.51636719 94.19179687 -27.34523438 93.50859375 -28.19921875 92.8046875 C-30 91 -30 91 -30 89 C-30.66 89 -31.32 89 -32 89 C-37.50489648 79.90595717 -42.24829619 71.64119139 -44 61 C-44.226875 59.783125 -44.45375 58.56625 -44.6875 57.3125 C-45.76792372 45.86000857 -44.50787527 35.36814362 -37.546875 25.83984375 C-34.22551058 21.88943304 -30.08490438 18.31863184 -24.80175781 17.77294922 C-24.02670898 17.78342285 -23.25166016 17.79389648 -22.453125 17.8046875 C-21.18662109 17.81435547 -21.18662109 17.81435547 -19.89453125 17.82421875 C-19.02183594 17.84097656 -18.14914063 17.85773437 -17.25 17.875 C-15.91775391 17.88853516 -15.91775391 17.88853516 -14.55859375 17.90234375 C-12.37211942 17.92585423 -10.18619906 17.95871501 -8 18 C-8.05220703 16.42798828 -8.05220703 16.42798828 -8.10546875 14.82421875 C-8.13360937 13.44532853 -8.16090924 12.06642098 -8.1875 10.6875 C-8.21263672 9.99720703 -8.23777344 9.30691406 -8.26367188 8.59570312 C-8.33771651 3.48662322 -8.33771651 3.48662322 -6.64453125 1.046875 C-4.25154088 -0.47645379 -2.77392911 -0.48543759 0 0 Z M-31 38 C-34.58804478 44.33853444 -33.78178914 52.98931464 -32.4296875 59.92578125 C-29.91183867 68.65874114 -25.61838326 78.31661937 -17.765625 83.46484375 C-15.88648341 84.40108273 -13.94693166 85.214396 -12 86 C-12.165 85.113125 -12.33 84.22625 -12.5 83.3125 C-14.05066918 72.04734446 -13.90023718 61.00312301 -7 51.5625 C-5.51517302 49.71033301 -4.05881175 48.05366233 -2.3046875 46.453125 C-0.67207668 44.97602461 -0.67207668 44.97602461 -1.125 42.1875 C-2.04256546 38.84494011 -3.41459055 36.07226641 -5 33 C-8.20784721 32.85377976 -11.41482961 32.76563349 -14.625 32.6875 C-15.52863281 32.64560547 -16.43226562 32.60371094 -17.36328125 32.56054688 C-23.73202455 32.44432893 -26.7177143 33.1706084 -31 38 Z M8 33 C8.63078321 34.4475972 9.26458289 35.89388025 9.8996582 37.33959961 C10.25228226 38.14513779 10.60490631 38.95067596 10.96821594 39.78062439 C15.27996413 49.05522859 24.42520542 58.0998669 33.7578125 62.31640625 C40.17023813 64.27141406 46.89995513 65.09194714 53 62 C56.87712143 57.90132877 58.78274924 54.30285803 59.3125 48.6875 C58.89669858 43.78104324 57.79593055 39.21515353 54.64453125 35.328125 C51.70387061 32.95324467 48.45526534 32.87513807 44.78222656 32.88647461 C43.96167786 32.88655014 43.14112915 32.88662567 42.29571533 32.88670349 C40.98144562 32.89444542 40.98144562 32.89444542 39.640625 32.90234375 C38.73624695 32.9037587 37.8318689 32.90517365 36.90008545 32.90663147 C34.01668973 32.91222089 31.13337218 32.92477147 28.25 32.9375 C26.29296987 32.94251637 24.33593853 32.94707904 22.37890625 32.95117188 C17.58590747 32.96218687 12.79296698 32.97944426 8 33 Z M38 105 C38.02094727 105.61407715 38.04189453 106.2281543 38.06347656 106.86083984 C38.14768034 109.69872017 38.19898423 112.53633652 38.25 115.375 C38.28351563 116.34050781 38.31703125 117.30601562 38.3515625 118.30078125 C38.4598426 126.36764906 36.92088851 132.996629 32.11328125 139.5859375 C31.51902344 140.17632812 30.92476563 140.76671875 30.3125 141.375 C27.8079957 143.89559319 26.46594497 145.43876387 26 149 C26.73516928 151.40753252 26.73516928 151.40753252 27.9375 153.75 C28.50791016 154.94882813 28.50791016 154.94882813 29.08984375 156.171875 C29.39019531 156.77515625 29.69054687 157.3784375 30 158 C33.20784721 158.14622024 36.41482961 158.23436651 39.625 158.3125 C40.52863281 158.35439453 41.43226562 158.39628906 42.36328125 158.43945312 C46.79425925 158.52031039 49.98452785 158.5375379 53.53125 155.68359375 C57.92940972 150.90268278 59.59892503 146.05032899 59.34765625 139.6484375 C57.55073709 125.95954774 52.37001663 115.36263336 41.953125 106.3984375 C40.12933377 104.80594641 40.12933377 104.80594641 38 105 Z M-30 131 C-33.73723864 136.28368221 -33.66897518 141.765523 -33 148 C-31.26938542 153.287989 -28.85923639 155.396862 -24 158 C-20.80322493 158.52391668 -17.67748245 158.46769152 -14.4453125 158.390625 C-13.09299026 158.38213531 -13.09299026 158.38213531 -11.71334839 158.37347412 C-8.85001237 158.35118555 -5.98795411 158.30100389 -3.125 158.25 C-1.17710148 158.22992525 0.77081677 158.21167619 2.71875 158.1953125 C7.4796547 158.15134547 12.23961114 158.08237063 17 158 C15.09027892 147.36947822 7.46620807 139.26474237 -1 133 C-9.28229453 128.03299984 -22.35457785 122.19618055 -30 131 Z " fill="#F34A42" transform="translate(53,15)"/>
<path d="M0 0 C1.65 0 3.3 0 5 0 C5 3.28317149 4.55927667 6.31713419 4.0625 9.5625 C3.88847656 10.71878906 3.71445313 11.87507812 3.53515625 13.06640625 C3 16 3 16 2 18 C3.98 17.67 5.96 17.34 8 17 C8 17.66 8 18.32 8 19 C8.66 19 9.32 19 10 19 C10.66 12.73 11.32 6.46 12 0 C12.33 0 12.66 0 13 0 C13.50621805 12.12111004 13.79382457 21.82914704 5.3125 31.375 C4.40951172 32.28378906 4.40951172 32.28378906 3.48828125 33.2109375 C1.7846102 35.25892003 1.38053428 36.37815106 1 39 C1.51695439 41.39318762 1.51695439 41.39318762 2.4375 43.75 C2.72496094 44.54921875 3.01242188 45.3484375 3.30859375 46.171875 C3.53675781 46.77515625 3.76492187 47.3784375 4 48 C7.23045973 47.94791754 10.45828759 47.85279846 13.6875 47.75 C14.59951172 47.73582031 15.51152344 47.72164062 16.45117188 47.70703125 C20.70669503 47.55228495 23.33832448 47.4033151 27.03125 45.15234375 C31.35860444 40.42144633 32.43287333 35.48132056 32.2421875 29.2734375 C31.99879755 26.98871251 31.5387222 24.90296264 30.9375 22.6875 C30.04697997 19.18478789 29.98033749 18.2301197 31 15 C31.99 15.99 31.99 15.99 33 17 C32.814375 16.46375 32.62875 15.9275 32.4375 15.375 C31.88580676 12.38009386 32.39402556 9.96254171 33 7 C32.01 6.505 32.01 6.505 31 6 C31.66 5.01 32.32 4.02 33 3 C37.05984799 5.17491857 38.54433045 8.36612575 40.24609375 12.45703125 C41.9340163 18.15049022 41.52204536 24.2923299 40 30 C41.485 30.495 41.485 30.495 43 31 C43.62271129 39.8286623 43.34693604 46.70081057 38 54 C33.15768102 59.47752812 28.43959236 63.47573342 21 64 C16.66036523 64.12998906 12.33962409 64.11907505 8 64 C8.05220703 65.33804688 8.05220703 65.33804688 8.10546875 66.703125 C8.13253906 67.87359375 8.15960938 69.0440625 8.1875 70.25 C8.23970703 71.99023438 8.23970703 71.99023438 8.29296875 73.765625 C7.97727813 77.25084947 7.50069655 78.59839865 5 81 C2 81.5 2 81.5 -1 81 C-3.50069655 78.59839865 -3.97727813 77.25084947 -4.29296875 73.765625 C-4.25816406 72.60546875 -4.22335938 71.4453125 -4.1875 70.25 C-4.14689453 68.49429688 -4.14689453 68.49429688 -4.10546875 66.703125 C-4.07066406 65.81109375 -4.03585938 64.9190625 -4 64 C-5.92863892 64.02356567 -5.92863892 64.02356567 -7.89624023 64.04760742 C-12.69891006 64.10219902 -17.50155283 64.13645594 -22.30444336 64.16479492 C-24.37708154 64.17981521 -26.44968829 64.20023747 -28.5222168 64.22631836 C-31.51358836 64.26300024 -34.5045371 64.27979435 -37.49609375 64.29296875 C-38.41208847 64.30845261 -39.32808319 64.32393646 -40.27183533 64.33988953 C-48.92147669 64.34211615 -56.11194288 62.64922974 -62.50390625 56.58203125 C-68.75360049 49.97334674 -71.01929414 41.42715725 -71.375 32.4375 C-70.93210902 22.62303578 -67.61430424 14.29199935 -61 7 C-55.10941063 2.43720741 -49.23207453 1.3909832 -42 2 C-29.48650355 4.41395109 -18.03767662 10.22569374 -10.125 20.5 C-9.42375 21.325 -8.7225 22.15 -8 23 C-6.68 23 -5.36 23 -4 23 C-3.71125 22.401875 -3.4225 21.80375 -3.125 21.1875 C-2 19 -2 19 0 16 C1.2167244 10.54061054 1.04454459 5.45484396 0 0 Z M-56 21 C-59.73723864 26.28368221 -59.66897518 31.765523 -59 38 C-57.26938542 43.287989 -54.85923639 45.396862 -50 48 C-46.80322493 48.52391668 -43.67748245 48.46769152 -40.4453125 48.390625 C-39.09299026 48.38213531 -39.09299026 48.38213531 -37.71334839 48.37347412 C-34.85001237 48.35118555 -31.98795411 48.30100389 -29.125 48.25 C-27.17710148 48.22992525 -25.22918323 48.21167619 -23.28125 48.1953125 C-18.5203453 48.15134547 -13.76038886 48.08237063 -9 48 C-10.90972108 37.36947822 -18.53379193 29.26474237 -27 23 C-35.28229453 18.03299984 -48.35457785 12.19618055 -56 21 Z " fill="#8E60AD" transform="translate(79,125)"/>
<path d="M0 0 C3.44498764 3.3615739 3.47167282 6.58813299 3.6875 11.25 C3.78611328 13.14492188 3.78611328 13.14492188 3.88671875 15.078125 C3.94279297 16.52445313 3.94279297 16.52445313 4 18 C4.58580338 17.99111755 5.17160675 17.98223511 5.77516174 17.9730835 C11.89110524 17.88435378 18.00686484 17.82415968 24.12329102 17.78027344 C26.40364005 17.7602008 28.68393789 17.73293657 30.96411133 17.69824219 C34.24833842 17.64953391 37.53188292 17.62698714 40.81640625 17.609375 C41.83021866 17.58872986 42.84403107 17.56808472 43.88856506 17.54681396 C51.42844745 17.54444222 55.58693479 19.00497801 61.328125 24.04296875 C69.43835899 33.09280302 70.73465999 41.09152993 70.359375 52.94921875 C69.93736451 59.5836517 67.35021279 64.99725529 63 70 C61.515 69.505 61.515 69.505 60 69 C60.99 67.02 60.99 67.02 62 65 C62.66 65 63.32 65 64 65 C64 62.36 64 59.72 64 57 C63.67 57.33 63.34 57.66 63 58 C62.01 58.66 61.02 59.32 60 60 C59.34 59.34 58.68 58.68 58 58 C57.67 59.65 57.34 61.3 57 63 C55.35 63 53.7 63 52 63 C52.61875 62.113125 53.2375 61.22625 53.875 60.3125 C57.2926152 54.98504101 58.4565967 51.39235382 58 45 C57.38655243 43.31301918 56.72904086 41.64034193 56 40 C56 39.01 56 38.02 56 37 C54.515 36.505 54.515 36.505 53 36 C53 35.34 53 34.68 53 34 C52.43845718 33.98969254 51.87691437 33.97938507 51.2983551 33.96876526 C45.47506534 33.86092315 39.65193736 33.74630792 33.82885742 33.62768555 C31.65311047 33.58426493 29.47732786 33.54259529 27.30151367 33.50268555 C24.18136832 33.44515498 21.06140367 33.38141177 17.94140625 33.31640625 C16.96224747 33.29969376 15.98308868 33.28298126 14.97425842 33.26576233 C14.07340012 33.24581711 13.17254181 33.22587189 12.24438477 33.20532227 C11.44718521 33.18977798 10.64998566 33.1742337 9.82862854 33.15821838 C8 33 8 33 7 32 C5.31816052 31.76712992 3.6287584 31.58735834 1.9375 31.4375 C1.01839844 31.35371094 0.09929688 31.26992188 -0.84765625 31.18359375 C-1.91306641 31.09271484 -1.91306641 31.09271484 -3 31 C-3.33 31.66 -3.66 32.32 -4 33 C-4 32.34 -4 31.68 -4 31 C-4.83402344 31.16628906 -5.66804688 31.33257812 -6.52734375 31.50390625 C-11.51568396 32.21652628 -16.41428946 31.96640762 -21.44140625 31.83984375 C-24.8761213 31.99442478 -27.01123312 32.34259291 -30 34 C-31.84274976 37.01696409 -31.84274976 37.01696409 -33 40 C-33.66 40 -34.32 40 -35 40 C-35.66 39.01 -36.32 38.02 -37 37 C-40.24732932 38.62366466 -40.70155136 41.75387839 -42 45 C-42.66 44.67 -43.32 44.34 -44 44 C-43.73225398 35.69987339 -41.20097047 29.41772816 -35.41015625 23.328125 C-31.33173158 19.79971689 -27.86335541 17.73157628 -22.453125 17.8046875 C-21.18662109 17.81435547 -21.18662109 17.81435547 -19.89453125 17.82421875 C-19.02183594 17.84097656 -18.14914063 17.85773437 -17.25 17.875 C-15.91775391 17.88853516 -15.91775391 17.88853516 -14.55859375 17.90234375 C-12.37211942 17.92585423 -10.18619906 17.95871501 -8 18 C-8.05220703 16.42798828 -8.05220703 16.42798828 -8.10546875 14.82421875 C-8.13360937 13.44532853 -8.16090924 12.06642098 -8.1875 10.6875 C-8.21263672 9.99720703 -8.23777344 9.30691406 -8.26367188 8.59570312 C-8.33771651 3.48662322 -8.33771651 3.48662322 -6.64453125 1.046875 C-4.25154088 -0.47645379 -2.77392911 -0.48543759 0 0 Z " fill="#F6632B" transform="translate(53,15)"/>
<path d="M0 0 C0.33 0 0.66 0 1 0 C1 1.65 1 3.3 1 5 C1.66 5 2.32 5 3 5 C3.33 10.94 3.66 16.88 4 23 C6.475 23.99 6.475 23.99 9 25 C9.80421387 25.52859619 10.60842773 26.05719238 11.43701172 26.60180664 C14.51313986 28.27993446 16.52027442 28.36865036 20.0078125 28.37109375 C21.73644531 28.39719727 21.73644531 28.39719727 23.5 28.42382812 C25.89321781 28.43285427 28.28645303 28.43813816 30.6796875 28.43945312 C43.37091285 28.64392287 52.53293329 32.06745216 61.80078125 40.671875 C73.63002229 52.94700761 77.39379711 69.1020927 77.15405273 85.61645508 C77.11295723 87.41123419 77.05801966 89.20568826 77 91 C76.67 91 76.34 91 76 91 C75.95101562 90.36191406 75.90203125 89.72382813 75.8515625 89.06640625 C75.73941406 87.82697266 75.73941406 87.82697266 75.625 86.5625 C75.52058594 85.32693359 75.52058594 85.32693359 75.4140625 84.06640625 C75.20910156 83.04353516 75.20910156 83.04353516 75 82 C74.34 81.67 73.68 81.34 73 81 C73.04640625 80.02160156 73.0928125 79.04320312 73.140625 78.03515625 C73.47338909 66.95287464 73.47338909 66.95287464 69 57 C67.515 56.01 67.515 56.01 66 55 C66 55.99 66 56.98 66 58 C65.979375 59.134375 65.95875 60.26875 65.9375 61.4375 C65.98680104 64.24765914 66.15514042 66.35981381 67 69 C65.515 68.505 65.515 68.505 64 68 C64 67.34 64 66.68 64 66 C63.34 66 62.68 66 62 66 C61.67128906 65.29875 61.34257813 64.5975 61.00390625 63.875 C57.27248063 56.43237328 52.65310415 49.82655207 45 46 C45.18304688 46.65742187 45.36609375 47.31484375 45.5546875 47.9921875 C46.12068024 51.81512091 45.65686417 55.33287753 45.125 59.125 C44.98771484 60.19814453 44.98771484 60.19814453 44.84765625 61.29296875 C44.44562169 64.32238413 43.96864924 67.09405227 43 70 C39.88742431 70 37.89234315 69.82638376 35 69 C35.30811738 66.54104382 35.62128988 64.08291693 35.9375 61.625 C36.02451172 60.92632812 36.11152344 60.22765625 36.20117188 59.5078125 C36.88671875 54.2265625 36.88671875 54.2265625 38 52 C37.278125 51.938125 36.55625 51.87625 35.8125 51.8125 C32.15130298 50.75482086 30.59192164 48.72833857 28 46 C24.8311119 44.94370397 22.51625087 44.85987661 19.1875 44.82421875 C18.02863281 44.80037109 16.86976562 44.77652344 15.67578125 44.75195312 C13.25668045 44.70953531 10.83736049 44.67799095 8.41796875 44.65820312 C-1.8212232 44.41548799 -10.68866052 42.65018449 -18.6875 35.875 C-19.51636719 35.19179687 -20.34523438 34.50859375 -21.19921875 33.8046875 C-23 32 -23 32 -23 30 C-23.66 30 -24.32 30 -25 30 C-25 29.34 -25 28.68 -25 28 C-21.625 28.25 -21.625 28.25 -18 29 C-16.5625 31.0625 -16.5625 31.0625 -16 33 C-15.34 32.01 -14.68 31.02 -14 30 C-14.33 29.34 -14.66 28.68 -15 28 C-14.5625 25.875 -14.5625 25.875 -14 24 C-14.66 23.67 -15.32 23.34 -16 23 C-16.625 20.4375 -16.625 20.4375 -17 18 C-16.54109375 18.40992187 -16.0821875 18.81984375 -15.609375 19.2421875 C-14.99578125 19.78101562 -14.3821875 20.31984375 -13.75 20.875 C-13.14671875 21.40867187 -12.5434375 21.94234375 -11.921875 22.4921875 C-10.02581254 23.9797487 -8.18709995 25.00322436 -6 26 C-5.90912109 24.74896484 -5.90912109 24.74896484 -5.81640625 23.47265625 C-5.6429316 21.14275825 -5.46294888 18.81333805 -5.27734375 16.484375 C-5.11076748 14.39161404 -4.95391876 12.29799646 -4.81640625 10.203125 C-4.64995942 8.12423806 -4.33738823 6.05806818 -4 4 C-3.01 3.34 -2.02 2.68 -1 2 C-0.67 1.34 -0.34 0.68 0 0 Z " fill="#E22F6B" transform="translate(46,74)"/>
<path d="M0 0 C1.65 0 3.3 0 5 0 C5 3.28317149 4.55927667 6.31713419 4.0625 9.5625 C3.88847656 10.71878906 3.71445313 11.87507812 3.53515625 13.06640625 C3 16 3 16 2 18 C3.98 17.67 5.96 17.34 8 17 C8 17.66 8 18.32 8 19 C8.66 19 9.32 19 10 19 C10.66 12.73 11.32 6.46 12 0 C12.33 0 12.66 0 13 0 C13.50732501 12.14761547 13.72549974 21.77951074 5.375 31.4375 C4.78460938 32.05496094 4.19421875 32.67242187 3.5859375 33.30859375 C1.80332643 35.11682937 1.80332643 35.11682937 0 38 C-0.66 38 -1.32 38 -2 38 C-1.505 40.97 -1.505 40.97 -1 44 C-2.75 45.125 -2.75 45.125 -5 46 C-7.1875 45.375 -7.1875 45.375 -9 44 C-9.79875868 41.86997684 -10 40.26695035 -10 38 C-10.99 38.66 -11.98 39.32 -13 40 C-13.3403125 39.43152344 -13.680625 38.86304688 -14.03125 38.27734375 C-20.09277839 28.62081314 -27.91760829 21.78360139 -38.98828125 18.390625 C-43.01022157 17.60966572 -46.93987414 17.40776122 -51 18 C-54.40982828 20.55737121 -56.38608684 23.09559874 -58 27 C-58.73275333 33.2997754 -58.4941331 38.54915237 -55 44 C-54.67 44.66 -54.34 45.32 -54 46 C-55.859375 45.84765625 -55.859375 45.84765625 -58 45 C-59.265625 42.49609375 -59.265625 42.49609375 -60.25 39.4375 C-60.58515625 38.42558594 -60.9203125 37.41367188 -61.265625 36.37109375 C-61.50796875 35.58863281 -61.7503125 34.80617187 -62 34 C-62.99 34 -63.98 34 -65 34 C-66.70532323 35.94009522 -66.70532323 35.94009522 -68 38 C-68.33 37.34 -68.66 36.68 -69 36 C-69.99 36.495 -69.99 36.495 -71 37 C-71.52552051 26.31441634 -69.38383194 17.74748754 -62.90625 9.1015625 C-59.2710635 5.09391837 -54.59501349 2.38945979 -49.125 1.796875 C-34.83392405 1.48163068 -23.37421 7.64708529 -13 17 C-12.01090717 18.1407056 -11.04622969 19.30381868 -10.125 20.5 C-9.42375 21.325 -8.7225 22.15 -8 23 C-6.68 23 -5.36 23 -4 23 C-3.71125 22.401875 -3.4225 21.80375 -3.125 21.1875 C-2 19 -2 19 0 16 C1.2167244 10.54061054 1.04454459 5.45484396 0 0 Z " fill="#BC4187" transform="translate(79,125)"/>
<path d="M0 0 C3.94677971 -0.10007438 7.89305205 -0.17202516 11.84082031 -0.21972656 C13.83164478 -0.24935477 15.82211708 -0.30022326 17.8125 -0.3515625 C28.37762962 -0.45828098 36.7488907 1.08380367 44.59765625 8.5078125 C48.32203758 12.47080322 49.69001232 16.16714013 50.12890625 21.5234375 C49.8331033 27.20643955 47.64312519 32.26559007 43.75 36.375 C34.46750531 41.8601105 27.83006012 43.13048265 17 43 C17.495 50.92 17.495 50.92 18 59 C20.64 59.33 23.28 59.66 26 60 C26 61.98 26 63.96 26 66 C17.75 66 9.5 66 1 66 C0.505 63.525 0.505 63.525 0 61 C1.98 60.34 3.96 59.68 6 59 C6.11165965 41.96760808 6.05129446 25.00844253 5 8 C3.02 7.01 1.04 6.02 -1 5 C-0.67 3.35 -0.34 1.7 0 0 Z M18 6 C16.90088451 9.29734646 16.8860544 11.72958745 16.90234375 15.19921875 C16.90556641 16.40771484 16.90878906 17.61621094 16.91210938 18.86132812 C16.92048828 20.12396484 16.92886719 21.38660156 16.9375 22.6875 C16.94201172 23.96173828 16.94652344 25.23597656 16.95117188 26.54882812 C16.96297127 29.69926564 16.97943403 32.84960949 17 36 C23.23833666 37.10937534 27.36036269 36.85799802 33 34 C36.52308257 30.47691743 37.86634181 27.73755647 38.25 22.75 C37.88625166 17.29377485 36.56774236 13.48734531 32.5625 9.6875 C31.716875 9.130625 30.87125 8.57375 30 8 C29.1028125 7.38125 29.1028125 7.38125 28.1875 6.75 C24.77955812 5.58156278 21.58866602 5.8803778 18 6 Z " fill="#FEFEFE" transform="translate(269,99)"/>
<path d="M0 0 C0 9.9 0 19.8 0 30 C1.65 29.34 3.3 28.68 5 28 C10.90765369 27.27909773 16.02271371 27.49327557 21 31 C25.95933127 35.93599324 28.13768248 39.55884682 28.375 46.6875 C28.28784604 52.70838599 27.32676306 56.70195439 23 61 C17.14300212 65.26217839 11.95469682 68.14508136 4.625 68.125 C3.22121094 68.12886719 3.22121094 68.12886719 1.7890625 68.1328125 C-0.90812809 68.00437485 -3.35890797 67.52821841 -6 67 C-8.72502965 67.37722015 -8.72502965 67.37722015 -11 68 C-11.72568822 65.25851117 -12.05195229 63.281483 -11.53344727 60.47216797 C-10.81873864 55.82018348 -10.87690403 51.26933887 -10.90234375 46.5703125 C-10.90446617 45.084814 -10.90446617 45.084814 -10.90663147 43.56930542 C-10.91220748 40.42117227 -10.92475558 37.27311148 -10.9375 34.125 C-10.9425181 31.98437603 -10.94708046 29.84375094 -10.95117188 27.703125 C-10.96216906 22.46872551 -10.97888325 17.23436793 -11 12 C-13.475 11.01 -13.475 11.01 -16 10 C-16 8.68 -16 7.36 -16 6 C-13.9021477 4.79994469 -11.7979751 3.61497017 -9.6875 2.4375 C-8.79514648 1.92413086 -8.79514648 1.92413086 -7.88476562 1.40039062 C-3.33984375 -1.11328125 -3.33984375 -1.11328125 0 0 Z M-2 37 C-2.00627061 40.25175984 -1.94664525 43.49909686 -1.875 46.75 C-1.87757813 47.67039062 -1.88015625 48.59078125 -1.8828125 49.5390625 C-1.80700364 52.15446814 -1.66309122 54.46745734 -1 57 C2.10133183 59.83054706 3.9286849 60.84695499 8.0625 61.4375 C11.41465104 60.93824346 13.29834822 60.02623884 16 58 C18.84593522 53.73109717 18.62355477 50.01125118 18 45 C16.47982811 40.77642964 14.08531209 37.04265604 10 35 C5.50773306 34.51171011 2.21336219 35.52708369 -2 37 Z " fill="#FEFEFE" transform="translate(191,96)"/>
<path d="M0 0 C0.33 0.33 0.66 0.66 1 1 C0.99227279 2.79799076 0.9149399 4.5957654 0.80859375 6.390625 C0.75123047 7.49277344 0.69386719 8.59492188 0.63476562 9.73046875 C0.50411572 12.06146998 0.36876167 14.39221269 0.22851562 16.72265625 C0.17244141 17.82996094 0.11636719 18.93726563 0.05859375 20.078125 C-0.00013916 21.09293945 -0.05887207 22.10775391 -0.11938477 23.15332031 C0.0079464 26.18947848 0.71242517 28.26762277 2 31 C6.27587998 31.08384078 9.76358987 30.84728203 14 30 C14 23.73 14 17.46 14 11 C12.35 10.34 10.7 9.68 9 9 C9 7.35 9 5.7 9 4 C10.91512272 3.49411853 12.83216922 2.99551609 14.75 2.5 C16.35101563 2.08234375 16.35101563 2.08234375 17.984375 1.65625 C21 1 21 1 25 1 C25 11.23 25 21.46 25 32 C26.65 32 28.3 32 30 32 C30 33.98 30 35.96 30 38 C28.4188708 38.50692692 26.83498617 39.00526443 25.25 39.5 C24.36828125 39.7784375 23.4865625 40.056875 22.578125 40.34375 C20 41 20 41 16 41 C15.505 38.525 15.505 38.525 15 36 C14.46632812 36.28875 13.93265625 36.5775 13.3828125 36.875 C7.65433349 39.72932864 2.4063727 41.33046833 -4 40 C-6.82424288 37.80977082 -8.41508603 36.16982793 -10 33 C-10.08426094 31.3325394 -10.10725143 29.66174813 -10.09765625 27.9921875 C-10.09443359 27.00605469 -10.09121094 26.01992187 -10.08789062 25.00390625 C-10.07951172 23.97136719 -10.07113281 22.93882812 -10.0625 21.875 C-10.05798828 20.83472656 -10.05347656 19.79445312 -10.04882812 18.72265625 C-10.03701952 16.14838038 -10.02055075 13.57421854 -10 11 C-11.65 11.33 -13.3 11.66 -15 12 C-15.625 9.375 -15.625 9.375 -15 6 C-10.54337701 2.23097027 -5.96883523 -0.60629149 0 0 Z " fill="#FEFEFE" transform="translate(237,124)"/>
<path d="M0 0 C1.0991511 3.29745329 1.09878513 5.69530487 1.0625 9.1640625 C1.05476563 10.36804688 1.04703125 11.57203125 1.0390625 12.8125 C1.01972656 14.6996875 1.01972656 14.6996875 1 16.625 C0.97462174 19.11714536 0.95354435 21.60933957 0.9375 24.1015625 C0.92589844 25.20838379 0.91429687 26.31520508 0.90234375 27.45556641 C0.70895453 29.9354437 0.70895453 29.9354437 2 31 C8.21785385 31.3089031 8.21785385 31.3089031 14 29 C14 23.06 14 17.12 14 11 C12.35 10.34 10.7 9.68 9 9 C9 7.35 9 5.7 9 4 C10.89385437 3.49255577 12.79018666 2.99435426 14.6875 2.5 C15.74324219 2.2215625 16.79898438 1.943125 17.88671875 1.65625 C20.71142672 1.0608285 23.12836708 0.87213508 26 1 C25.9278125 2.07636719 25.855625 3.15273437 25.78125 4.26171875 C25.20562351 13.19367704 24.8598524 22.04612553 25 31 C26.98 31.33 28.96 31.66 31 32 C31 33.65 31 35.3 31 37 C25.87674471 39.45489316 21.66104589 40.50341703 16 41 C15.505 38.525 15.505 38.525 15 36 C13.906875 36.66 12.81375 37.32 11.6875 38 C6.73825897 40.43506175 1.36353827 41.63070112 -4 40 C-7.53812117 37.42847894 -9.69183155 34.7142862 -10.47412109 30.36254883 C-10.58974929 27.40645581 -10.5249242 24.51677565 -10.375 21.5625 C-10.33439453 20.03592773 -10.33439453 20.03592773 -10.29296875 18.47851562 C-10.22268507 15.98344487 -10.12437201 13.49286153 -10 11 C-11.65 11.33 -13.3 11.66 -15 12 C-15 10.02 -15 8.04 -15 6 C-13.25595212 4.98965502 -11.50450439 3.99207578 -9.75 3 C-8.77546875 2.443125 -7.8009375 1.88625 -6.796875 1.3125 C-4 0 -4 0 0 0 Z " fill="#FEFEFE" transform="translate(144,124)"/>
<path d="M0 0 C3.49505718 1.85032439 6.14992153 3.77651593 8.109375 7.234375 C8.109375 7.894375 8.109375 8.554375 8.109375 9.234375 C8.769375 9.234375 9.429375 9.234375 10.109375 9.234375 C10.109375 11.214375 10.109375 13.194375 10.109375 15.234375 C7.21493405 15.9076406 4.31907487 16.57317904 1.421875 17.234375 C0.19694336 17.52054688 0.19694336 17.52054688 -1.05273438 17.8125 C-2.24672852 18.08320313 -2.24672852 18.08320313 -3.46484375 18.359375 C-4.19276123 18.52695313 -4.92067871 18.69453125 -5.6706543 18.8671875 C-7.890625 19.234375 -7.890625 19.234375 -12.890625 19.234375 C-11.900625 22.864375 -10.910625 26.494375 -9.890625 30.234375 C-2.16642979 31.43105286 -2.16642979 31.43105286 5.109375 29.234375 C6.429375 29.234375 7.749375 29.234375 9.109375 29.234375 C9.109375 30.884375 9.109375 32.534375 9.109375 34.234375 C2.9877269 38.6634744 -2.29693633 40.10915324 -9.859375 39.7734375 C-13.73520136 39.08417972 -15.89087627 37.98023346 -18.58984375 35.140625 C-22.27816083 29.7355237 -23.58495203 23.71476061 -22.890625 17.234375 C-21.21865103 10.23146955 -18.79214036 4.9255359 -12.578125 0.921875 C-8.36291702 -1.28009932 -4.53333326 -1.83581264 0 0 Z M-8.890625 6.234375 C-11.24785989 8.76621988 -11.890625 9.70627593 -11.890625 13.234375 C-8.590625 12.574375 -5.290625 11.914375 -1.890625 11.234375 C-2.64212523 7.95663996 -2.64212523 7.95663996 -5.890625 6.234375 C-6.880625 6.234375 -7.870625 6.234375 -8.890625 6.234375 Z " fill="#FEFEFE" transform="translate(382.890625,124.765625)"/>
<path d="M0 0 C4.79870138 2.1907115 7.73343542 4.20953163 10 9 C10.66 9.33 11.32 9.66 12 10 C12 11.98 12 13.96 12 16 C8.91808296 16.67332993 5.8342592 17.33748859 2.75 18 C1.87730469 18.19078125 1.00460937 18.3815625 0.10546875 18.578125 C-1.16103516 18.84882813 -1.16103516 18.84882813 -2.453125 19.125 C-3.22817383 19.29257813 -4.00322266 19.46015625 -4.80175781 19.6328125 C-7 20 -7 20 -11 20 C-10.01 23.63 -9.02 27.26 -8 31 C-0.27580479 32.19667786 -0.27580479 32.19667786 7 30 C8.32 30 9.64 30 11 30 C11.495 31.98 11.495 31.98 12 34 C10.73168307 34.81642254 9.46024069 35.62799105 8.1875 36.4375 C7.12595703 37.11619141 7.12595703 37.11619141 6.04296875 37.80859375 C0.78177324 40.87678616 -5.09747879 40.79412963 -11 40 C-15.31039519 37.89369869 -17.48465545 34.84782491 -19.9375 30.8125 C-21.75376221 24.29532383 -22.22371375 17.88529298 -19.3125 11.625 C-14.95856701 4.12826326 -8.97437582 -1.21686452 0 0 Z M-7 7 C-9.58777208 10.05580974 -9.58777208 10.05580974 -10 14 C-4.555 13.01 -4.555 13.01 1 12 C-1.47635534 7.8519739 -1.47635534 7.8519739 -4.6875 7.25 C-5.450625 7.1675 -6.21375 7.085 -7 7 Z " fill="#FEFEFE" transform="translate(344,124)"/>
<path d="M0 0 C1.9375 1.3125 1.9375 1.3125 3 3 C3 3.99 3 4.98 3 6 C4.32 6.33 5.64 6.66 7 7 C7 7.99 7 8.98 7 10 C8.29585916 9.57507874 9.5866044 9.13454118 10.875 8.6875 C11.59429687 8.44386719 12.31359375 8.20023438 13.0546875 7.94921875 C15.33994905 7.03664453 15.33994905 7.03664453 17 4 C23.75 4.875 23.75 4.875 26 6 C32.82133213 6.94449214 39.21514418 7.17430197 46 6 C46.66 4.02 47.32 2.04 48 0 C48.99 0.99 49.98 1.98 51 3 C51.66 2.01 52.32 1.02 53 0 C53.99 0.495 53.99 0.495 55 1 C55.125 6.75 55.125 6.75 54 9 C53.34 9 52.68 9 52 9 C51.3185177 10.89179203 51.3185177 10.89179203 51 13 C51.99 13.99 51.99 13.99 53 15 C51.94512267 15.96671756 50.88066719 16.92298745 49.8125 17.875 C49.22082031 18.40867187 48.62914062 18.94234375 48.01953125 19.4921875 C42.4654676 23.63893521 36.67177336 23.70994511 30 23 C21.32940216 20.83235054 13.50869851 17.71802089 6.875 11.625 C6.04742187 10.87476562 5.21984375 10.12453125 4.3671875 9.3515625 C2.03055446 7.03035278 0.00255514 4.61162721 -2 2 C-5.92862057 3.27414721 -7.90532822 4.4091341 -10 8 C-12.97333586 14.54133888 -11.49224441 20.17831128 -10 27 C-10.99 26.67 -11.98 26.34 -13 26 C-15.24358808 19.880301 -15.10477792 11.41758513 -14 5 C-10.95820708 -0.14487231 -5.62886554 -0.86597931 0 0 Z " fill="#EF3C52" transform="translate(63,71)"/>
<path d="M0 0 C0.66 0.33 1.32 0.66 2 1 C2 1.99 2 2.98 2 4 C2.66 4 3.32 4 4 4 C4 4.66 4 5.32 4 6 C3.34 6 2.68 6 2 6 C2.84875036 19.18161276 6.56681867 28.65637074 12.72265625 40.2421875 C14 43 14 43 14 46 C15.485 46.495 15.485 46.495 17 47 C16.835 47.763125 16.67 48.52625 16.5 49.3125 C15.90854604 52.03596236 15.90854604 52.03596236 16 55 C15.67 55.66 15.34 56.32 15 57 C13.515 56.505 13.515 56.505 12 56 C12 54.68 12 53.36 12 52 C10.76894531 51.96519531 9.53789062 51.93039063 8.26953125 51.89453125 C4.62863838 51.43009482 4.16481304 51.186045 1.57421875 48.26171875 C0.91176517 47.08863428 0.28394346 45.89548474 -0.3125 44.6875 C-0.64515869 44.06029053 -0.97781738 43.43308105 -1.32055664 42.78686523 C-4.21934372 37.08637276 -5.90640844 31.29757899 -7 25 C-7.226875 23.783125 -7.45375 22.56625 -7.6875 21.3125 C-8.76111745 9.93215507 -8.76111745 9.93215507 -6.609375 7.296875 C-5 6 -5 6 -3 5 C-2.835 4.34 -2.67 3.68 -2.5 3 C-2.335 2.34 -2.17 1.68 -2 1 C-1.34 0.67 -0.68 0.34 0 0 Z " fill="#EB4050" transform="translate(16,51)"/>
<path d="M0 0 C1.65 0 3.3 0 5 0 C5 3.28317149 4.55927667 6.31713419 4.0625 9.5625 C3.88847656 10.71878906 3.71445313 11.87507812 3.53515625 13.06640625 C3 16 3 16 2 18 C3.98 17.67 5.96 17.34 8 17 C8 17.66 8 18.32 8 19 C8.66 19 9.32 19 10 19 C10.66 12.73 11.32 6.46 12 0 C12.33 0 12.66 0 13 0 C13.50732501 12.14761547 13.72549974 21.77951074 5.375 31.4375 C4.78460938 32.05496094 4.19421875 32.67242187 3.5859375 33.30859375 C1.80332643 35.11682937 1.80332643 35.11682937 0 38 C-0.66 38 -1.32 38 -2 38 C-1.505 40.97 -1.505 40.97 -1 44 C-2.75 45.125 -2.75 45.125 -5 46 C-7.1875 45.375 -7.1875 45.375 -9 44 C-9.79875868 41.86997684 -10 40.26695035 -10 38 C-10.99 38.66 -11.98 39.32 -13 40 C-13.3403125 39.43152344 -13.680625 38.86304688 -14.03125 38.27734375 C-20.00941465 28.75361868 -26.84244764 23.61235796 -37 19 C-38.33604881 18.33879217 -39.67034635 17.67397582 -41 17 C-37.38967539 15.69020782 -35.37335642 16.30888601 -31.875 17.75 C-31.00617187 18.09546875 -30.13734375 18.4409375 -29.2421875 18.796875 C-27 20 -27 20 -25 23 C-20.2601334 25.68671666 -20.2601334 25.68671666 -15.0625 25.1875 C-14.381875 24.795625 -13.70125 24.40375 -13 24 C-13 22.68 -13 21.36 -13 20 C-12.443125 20.309375 -11.88625 20.61875 -11.3125 20.9375 C-8.87459567 22.05761821 -6.63775814 22.56037364 -4 23 C-3.566875 22.1028125 -3.566875 22.1028125 -3.125 21.1875 C-2 19 -2 19 0 16 C1.2167244 10.54061054 1.04454459 5.45484396 0 0 Z " fill="#A55099" transform="translate(79,125)"/>
<path d="M0 0 C3.44498764 3.3615739 3.47167282 6.58813299 3.6875 11.25 C3.78611328 13.14492188 3.78611328 13.14492188 3.88671875 15.078125 C3.92410156 16.04234375 3.96148437 17.0065625 4 18 C4.58580338 17.99111755 5.17160675 17.98223511 5.77516174 17.9730835 C11.89110524 17.88435378 18.00686484 17.82415968 24.12329102 17.78027344 C26.40364005 17.7602008 28.68393789 17.73293657 30.96411133 17.69824219 C34.24833842 17.64953391 37.53188292 17.62698714 40.81640625 17.609375 C41.83021866 17.58872986 42.84403107 17.56808472 43.88856506 17.54681396 C51.42844745 17.54444222 55.58693479 19.00497801 61.328125 24.04296875 C69.43835899 33.09280302 70.73465999 41.09152993 70.359375 52.94921875 C69.93736451 59.5836517 67.35021279 64.99725529 63 70 C61.515 69.505 61.515 69.505 60 69 C60.99 67.02 60.99 67.02 62 65 C62.66 65 63.32 65 64 65 C64 62.36 64 59.72 64 57 C63.67 57.33 63.34 57.66 63 58 C62.01 58.66 61.02 59.32 60 60 C59.34 59.34 58.68 58.68 58 58 C57.67 59.65 57.34 61.3 57 63 C55.35 63 53.7 63 52 63 C52.61875 62.113125 53.2375 61.22625 53.875 60.3125 C57.2926152 54.98504101 58.4565967 51.39235382 58 45 C57.38655243 43.31301918 56.72904086 41.64034193 56 40 C56 39.01 56 38.02 56 37 C55.01 36.67 54.02 36.34 53 36 C53 35.34 53 34.68 53 34 C54.32 34 55.64 34 57 34 C58.02019573 33.0206121 59.02149805 32.02104551 60 31 C60.99 31 61.98 31 63 31 C63 32.65 63 34.3 63 36 C64.485 36.495 64.485 36.495 66 37 C66 38.32 66 39.64 66 41 C66.66 41 67.32 41 68 41 C65.37688699 33.7226024 63.422114 28.48054465 57 24 C57 23.34 57 22.68 57 22 C51.00265528 20.97677361 45.11171847 20.78597358 39.03515625 20.68359375 C38.00184677 20.66281265 36.96853729 20.64203156 35.90391541 20.62062073 C32.62350716 20.55556522 29.34302315 20.49644596 26.0625 20.4375 C23.83007049 20.39427289 21.59764846 20.35065729 19.36523438 20.30664062 C13.91023489 20.19992929 8.45516108 20.09808356 3 20 C0.92026304 16.19079756 0.61660717 13.09892913 0.375 8.75 C0.26285156 6.85507812 0.26285156 6.85507812 0.1484375 4.921875 C0.09945312 3.95765625 0.05046875 2.9934375 0 2 C-1.98 2 -3.96 2 -6 2 C-6.33 4.97 -6.66 7.94 -7 11 C-7.33 11 -7.66 11 -8 11 C-8.36334661 3.61195219 -8.36334661 3.61195219 -6.8125 1 C-4.30538007 -0.38323858 -2.8180173 -0.49315303 0 0 Z " fill="#F4503C" transform="translate(53,15)"/>
<path d="M0 0 C3 1 3 1 4 3 C5.29373535 2.99419922 6.5874707 2.98839844 7.92041016 2.98242188 C22.41181388 2.9383869 36.88778391 3.17139668 51.375 3.5 C53.58723481 3.54839568 55.7994744 3.59657373 58.01171875 3.64453125 C63.34120316 3.76052588 68.6706235 3.87915378 74 4 C73.67 4.66 73.34 5.32 73 6 C68.71 6 64.42 6 60 6 C60.061875 8.0625 60.12375 10.125 60.1875 12.25 C60.36996306 18.33210208 60.36996306 18.33210208 58.67578125 21.390625 C57 23 57 23 54 23.5 C51 23 51 23 49.32421875 21.390625 C47.55930238 18.20440429 47.70395309 15.86823046 47.8125 12.25 C47.85310547 10.49429688 47.85310547 10.49429688 47.89453125 8.703125 C47.92933594 7.81109375 47.96414062 6.9190625 48 6 C46.69329346 6.00523682 45.38658691 6.01047363 44.0402832 6.01586914 C39.18547248 6.03398927 34.33066474 6.04545768 29.47583008 6.05493164 C27.37589007 6.05995581 25.27595354 6.06677625 23.17602539 6.07543945 C20.15510191 6.0875889 17.13422474 6.09324753 14.11328125 6.09765625 C13.17664139 6.10281754 12.24000153 6.10797882 11.27497864 6.11329651 C7.05539962 6.11365846 3.11167108 6.08716646 -1 5 C-0.67 3.35 -0.34 1.7 0 0 Z " fill="#554B77" transform="translate(27,183)"/>
<path d="M0 0 C10.10558166 7.31116865 15.07163233 19.92905999 17.59375 31.79296875 C18.10657678 35.84134171 18.10739517 39.79990024 18.0625 43.875 C18.05798828 44.65875 18.05347656 45.4425 18.04882812 46.25 C18.03714093 48.16670014 18.01920908 50.08336048 18 52 C17.67 52 17.34 52 17 52 C16.95101562 51.36191406 16.90203125 50.72382813 16.8515625 50.06640625 C16.77679688 49.24011719 16.70203125 48.41382813 16.625 47.5625 C16.55539063 46.73878906 16.48578125 45.91507813 16.4140625 45.06640625 C16.20910156 44.04353516 16.20910156 44.04353516 16 43 C15.01 42.505 15.01 42.505 14 42 C14.04640625 41.02160156 14.0928125 40.04320312 14.140625 39.03515625 C14.47338909 27.95287464 14.47338909 27.95287464 10 18 C9.01 17.34 8.02 16.68 7 16 C7 16.99 7 17.98 7 19 C6.979375 20.134375 6.95875 21.26875 6.9375 22.4375 C6.98680104 25.24765914 7.15514042 27.35981381 8 30 C7.01 29.67 6.02 29.34 5 29 C5 28.34 5 27.68 5 27 C4.34 27 3.68 27 3 27 C2.67128906 26.29875 2.34257813 25.5975 2.00390625 24.875 C-1.72751937 17.43237328 -6.34689585 10.82655207 -14 7 C-13.690625 8.1446875 -13.690625 8.1446875 -13.375 9.3125 C-13 12 -13 12 -15 15 C-15.433125 13.2984375 -15.433125 13.2984375 -15.875 11.5625 C-16.24625 10.386875 -16.6175 9.21125 -17 8 C-17.66 7.67 -18.32 7.34 -19 7 C-19 6.34 -19 5.68 -19 5 C-13.375 3.875 -13.375 3.875 -10 5 C-8.29413425 6.62652316 -6.6222454 8.29006566 -5 10 C-4.01 9.67 -3.02 9.34 -2 9 C-2.33 8.01 -2.66 7.02 -3 6 C-2.01 5.67 -1.02 5.34 0 5 C-0.33 4.34 -0.66 3.68 -1 3 C-0.67 2.01 -0.34 1.02 0 0 Z " fill="#CF3776" transform="translate(105,113)"/>
<path d="M0 0 C0.7031987 0.0028299 1.4063974 0.00565979 2.13090515 0.00857544 C4.36218767 0.01971099 6.59305892 0.04480253 8.82421875 0.0703125 C10.34309313 0.0803509 11.86197385 0.08947524 13.38085938 0.09765625 C17.09127796 0.11962837 20.80145817 0.15411203 24.51171875 0.1953125 C25.09655029 1.22116455 25.68138184 2.2470166 26.28393555 3.30395508 C26.63273773 3.91574615 26.98153992 4.52753723 27.34091187 5.15786743 C28.06323974 6.42499565 28.78524982 7.69230504 29.50708008 8.9597168 C31.46878012 12.39655152 33.46032914 15.81084321 35.51171875 19.1953125 C33.53171875 18.8653125 31.55171875 18.5353125 29.51171875 18.1953125 C29.36734375 17.4321875 29.22296875 16.6690625 29.07421875 15.8828125 C28.54845935 13.11358342 28.54845935 13.11358342 27.51171875 10.1953125 C26.19171875 10.1953125 24.87171875 10.1953125 23.51171875 10.1953125 C21.79735695 12.15458313 20.12766707 14.15411462 18.51171875 16.1953125 C17.85171875 16.1953125 17.19171875 16.1953125 16.51171875 16.1953125 C16.05598958 14.27473958 15.60026042 12.35416667 15.14453125 10.43359375 C14.43872306 7.93712404 13.50921963 5.58847637 12.51171875 3.1953125 C9.28285866 3.07863375 6.0545443 3.00790704 2.82421875 2.9453125 C1.91220703 2.91179688 1.00019531 2.87828125 0.06054688 2.84375 C-4.16091049 2.78234698 -6.77430546 2.79260429 -10.5078125 4.8984375 C-14.98081233 10.0860586 -14.74756226 14.96419539 -14.61328125 21.5078125 C-14.60425781 22.34376953 -14.59523438 23.17972656 -14.5859375 24.04101562 C-14.56249114 26.09257219 -14.52662391 28.14398027 -14.48828125 30.1953125 C-17.4993139 25.67876352 -17.61510506 21.72168869 -17.55078125 16.3828125 C-17.54175781 15.40699219 -17.53273438 14.43117188 -17.5234375 13.42578125 C-17.51183594 12.68972656 -17.50023438 11.95367187 -17.48828125 11.1953125 C-16.82828125 11.1953125 -16.16828125 11.1953125 -15.48828125 11.1953125 C-15.36453125 10.4528125 -15.24078125 9.7103125 -15.11328125 8.9453125 C-14.50913764 6.28708062 -14.03255822 4.43451411 -12.48828125 2.1953125 C-8.30180888 0.01077121 -4.67127734 -0.03722133 0 0 Z " fill="#E6573C" transform="translate(35.48828125,45.8046875)"/>
<path d="M0 0 C1.9375 1.3125 1.9375 1.3125 3 3 C3 3.99 3 4.98 3 6 C4.32 6.33 5.64 6.66 7 7 C7 7.99 7 8.98 7 10 C8.1446875 10.1546875 8.1446875 10.1546875 9.3125 10.3125 C12.29903817 11.07649814 12.96692248 11.79749935 15 14 C19.01236605 16.82488272 22.7034306 17.78094838 27.5 18.6875 C28.7890625 18.93886719 30.078125 19.19023438 31.40625 19.44921875 C34.36162949 19.90216278 37.02366422 20.12019818 40 20 C40 19.01 40 18.02 40 17 C42.64 17 45.28 17 48 17 C48 16.01 48 15.02 48 14 C49.65 14 51.3 14 53 14 C49.82552688 18.76170968 46.40072133 21.30263044 41 23 C30.71141177 24.56462402 20.92113965 20.92484521 12 16 C9.3671875 13.9140625 9.3671875 13.9140625 6.875 11.625 C6.04742187 10.87476562 5.21984375 10.12453125 4.3671875 9.3515625 C2.03055446 7.03035278 0.00255514 4.61162721 -2 2 C-5.92862057 3.27414721 -7.90532822 4.4091341 -10 8 C-12.97333586 14.54133888 -11.49224441 20.17831128 -10 27 C-10.99 26.67 -11.98 26.34 -13 26 C-15.24358808 19.880301 -15.10477792 11.41758513 -14 5 C-10.95820708 -0.14487231 -5.62886554 -0.86597931 0 0 Z " fill="#CF4353" transform="translate(63,71)"/>
<path d="M0 0 C3.44498764 3.3615739 3.47167282 6.58813299 3.6875 11.25 C3.78611328 13.14492188 3.78611328 13.14492188 3.88671875 15.078125 C3.92410156 16.04234375 3.96148437 17.0065625 4 18 C4.58580338 17.99111755 5.17160675 17.98223511 5.77516174 17.9730835 C11.89110524 17.88435378 18.00686484 17.82415968 24.12329102 17.78027344 C26.40364005 17.7602008 28.68393789 17.73293657 30.96411133 17.69824219 C34.24833842 17.64953391 37.53188292 17.62698714 40.81640625 17.609375 C41.83021866 17.58872986 42.84403107 17.56808472 43.88856506 17.54681396 C51.50354634 17.5444186 55.74891019 18.99899403 61.4375 24.25 C62.2109375 25.11625 62.2109375 25.11625 63 26 C62.67 26.66 62.34 27.32 62 28 C60.2925002 26.71937515 58.62626404 25.38232443 57 24 C57 23.34 57 22.68 57 22 C51.00265528 20.97677361 45.11171847 20.78597358 39.03515625 20.68359375 C38.00184677 20.66281265 36.96853729 20.64203156 35.90391541 20.62062073 C32.62350716 20.55556522 29.34302315 20.49644596 26.0625 20.4375 C23.83007049 20.39427289 21.59764846 20.35065729 19.36523438 20.30664062 C13.91023489 20.19992929 8.45516108 20.09808356 3 20 C0.92026304 16.19079756 0.61660717 13.09892913 0.375 8.75 C0.26285156 6.85507812 0.26285156 6.85507812 0.1484375 4.921875 C0.09945312 3.95765625 0.05046875 2.9934375 0 2 C-1.98 2 -3.96 2 -6 2 C-6.33 4.97 -6.66 7.94 -7 11 C-7.33 11 -7.66 11 -8 11 C-8.36334661 3.61195219 -8.36334661 3.61195219 -6.8125 1 C-4.30538007 -0.38323858 -2.8180173 -0.49315303 0 0 Z " fill="#F67E4E" transform="translate(53,15)"/>
<path d="M0 0 C2.97 0 5.94 0 9 0 C9.82863949 3.31455797 10.16244851 5.76810035 10.1875 9.125 C10.20167969 9.99382812 10.21585938 10.86265625 10.23046875 11.7578125 C10 14 10 14 8 16 C5.0625 16.375 5.0625 16.375 2 16 C-0.12124703 13.84414055 -0.9335255 12.5080551 -1.328125 9.4921875 C-1.30234375 8.62851563 -1.2765625 7.76484375 -1.25 6.875 C-1.23453125 6.00617188 -1.2190625 5.13734375 -1.203125 4.2421875 C-1 2 -1 2 0 0 Z " fill="#6F74C2" transform="translate(76,190)"/>
<path d="M0 0 C0.66 3.3 1.32 6.6 2 10 C2.66 10 3.32 10 4 10 C4 8.35 4 6.7 4 5 C4.66 5 5.32 5 6 5 C6.03738281 5.86882812 6.07476562 6.73765625 6.11328125 7.6328125 C6.52863838 16.2330785 6.52863838 16.2330785 10 24 C10.33 24.66 10.66 25.32 11 26 C9.140625 25.84765625 9.140625 25.84765625 7 25 C5.734375 22.49609375 5.734375 22.49609375 4.75 19.4375 C4.41484375 18.42558594 4.0796875 17.41367188 3.734375 16.37109375 C3.49203125 15.58863281 3.2496875 14.80617187 3 14 C2.01 14 1.02 14 0 14 C-1.70532323 15.94009522 -1.70532323 15.94009522 -3 18 C-3.33 17.34 -3.66 16.68 -4 16 C-4.66 16.33 -5.32 16.66 -6 17 C-6.23433319 11.25883676 -6.02996747 6.4132466 -4 1 C-2 0 -2 0 0 0 Z " fill="#A94F9B" transform="translate(14,145)"/>
<path d="M0 0 C0.99 0 1.98 0 3 0 C3 0.66 3 1.32 3 2 C3.66 2 4.32 2 5 2 C5.33 2.66 5.66 3.32 6 4 C9.16301431 3.52075541 11.46088003 2.7780948 14.375 1.375 C18.47519416 -0.18024606 20.77728693 0.05204401 25 1 C24.67 1.66 24.34 2.32 24 3 C22.109375 3.23828125 22.109375 3.23828125 19.75 3.3125 C16.05707684 3.64075984 15.14973178 3.87956357 12.125 6.3125 C9.49958124 9.60924018 9.49958124 9.60924018 7 13 C7 12.34 7 11.68 7 11 C6.34 11 5.68 11 5 11 C5 12.65 5 14.3 5 16 C4.34 16 3.68 16 3 16 C1.68373308 12.38026598 1 9.90432869 1 6 C-0.32 6.33 -1.64 6.66 -3 7 C-1.125 1.125 -1.125 1.125 0 0 Z " fill="#B2488E" transform="translate(13,139)"/>
<path d="M0 0 C1.65 0 3.3 0 5 0 C1.82552688 4.76170968 -1.59927867 7.30263044 -7 9 C-17.26054725 10.56035972 -27.11114122 6.93825488 -36 2 C-31.71271969 0.57090656 -29.08437739 1.95288735 -25 3.5 C-19.43615476 5.40415405 -13.83949657 5.71345956 -8 6 C-8 5.01 -8 4.02 -8 3 C-5.36 3 -2.72 3 0 3 C0 2.01 0 1.02 0 0 Z " fill="#C93D57" transform="translate(111,85)"/>
<path d="M0 0 C0.67095703 0.58007812 0.67095703 0.58007812 1.35546875 1.171875 C4.8521026 4.18390075 8.37407463 7.14321031 12 10 C11.01 10 10.02 10 9 10 C8.7525 10.61875 8.505 11.2375 8.25 11.875 C6.7557016 14.41530728 5.75218149 15.02864183 3 16 C1.68 16 0.36 16 -1 16 C-1.33 15.01 -1.66 14.02 -2 13 C-2.99 12.67 -3.98 12.34 -5 12 C-4 10 -4 10 -1 9 C0.68538601 7.00334686 0.68538601 7.00334686 2 5 C0.68 4.01 -0.64 3.02 -2 2 C-1.34 2 -0.68 2 0 2 C0 1.34 0 0.68 0 0 Z " fill="#F0424A" transform="translate(71,65)"/>
<path d="M0 0 C1.39702148 0.00966797 1.39702148 0.00966797 2.82226562 0.01953125 C3.78197266 0.03628906 4.74167969 0.05304687 5.73046875 0.0703125 C6.70951172 0.07933594 7.68855469 0.08835938 8.69726562 0.09765625 C11.10441936 0.12114068 13.51106618 0.1539841 15.91796875 0.1953125 C15.91796875 0.8553125 15.91796875 1.5153125 15.91796875 2.1953125 C16.57796875 2.1953125 17.23796875 2.1953125 17.91796875 2.1953125 C18.57796875 5.4953125 19.23796875 8.7953125 19.91796875 12.1953125 C17.51010883 8.9848326 16.2359924 6.84522416 14.91796875 3.1953125 C11.68910866 3.07863375 8.4607943 3.00790704 5.23046875 2.9453125 C4.31845703 2.91179688 3.40644531 2.87828125 2.46679688 2.84375 C-1.75466049 2.78234698 -4.36805546 2.79260429 -8.1015625 4.8984375 C-12.57456233 10.0860586 -12.34131226 14.96419539 -12.20703125 21.5078125 C-12.19800781 22.34376953 -12.18898438 23.17972656 -12.1796875 24.04101562 C-12.15624114 26.09257219 -12.12037391 28.14398027 -12.08203125 30.1953125 C-15.0930639 25.67876352 -15.20885506 21.72168869 -15.14453125 16.3828125 C-15.13550781 15.40699219 -15.12648438 14.43117188 -15.1171875 13.42578125 C-15.10558594 12.68972656 -15.09398438 11.95367187 -15.08203125 11.1953125 C-14.42203125 11.1953125 -13.76203125 11.1953125 -13.08203125 11.1953125 C-12.95828125 10.4528125 -12.83453125 9.7103125 -12.70703125 8.9453125 C-12.10288764 6.28708062 -11.62630822 4.43451411 -10.08203125 2.1953125 C-6.60818313 0.50322318 -3.8437554 -0.04716264 0 0 Z " fill="#D25B44" transform="translate(33.08203125,45.8046875)"/>
<path d="M0 0 C1.98 0 3.96 0 6 0 C7.00496852 3.01490557 7.10335303 5.04181692 7.0625 8.1875 C7.05347656 9.08855469 7.04445313 9.98960938 7.03515625 10.91796875 C7.02355469 11.60503906 7.01195312 12.29210938 7 13 C4.69 13 2.38 13 0 13 C-1.44977894 10.65887549 -2.04314411 9.4203071 -1.7578125 6.640625 C-1.54898438 5.85171875 -1.34015625 5.0628125 -1.125 4.25 C-0.92132813 3.45078125 -0.71765625 2.6515625 -0.5078125 1.828125 C-0.34023438 1.22484375 -0.17265625 0.6215625 0 0 Z " fill="#F9721B" transform="translate(47,17)"/>
<path d="M0 0 C4.47286552 3.54744507 5.99587506 7.53149222 7 13 C8.05597044 23.7970931 7.48121579 32.43821974 1.25 41.5625 C0.8375 42.036875 0.425 42.51125 0 43 C-0.99 42.67 -1.98 42.34 -3 42 C-2.34 40.68 -1.68 39.36 -1 38 C-0.34 38 0.32 38 1 38 C1.33 36.35 1.66 34.7 2 33 C2.66 33 3.32 33 4 33 C4.11766716 29.52112528 4.18773315 26.0427723 4.25 22.5625 C4.28351563 21.58861328 4.31703125 20.61472656 4.3515625 19.61132812 C4.43279678 13.53906562 3.68547812 9.16526753 0.86621094 3.75756836 C0 2 0 2 0 0 Z " fill="#D15252" transform="translate(116,42)"/>
<path d="M0 0 C10.89 0 21.78 0 33 0 C32.67 0.66 32.34 1.32 32 2 C27.71 2 23.42 2 19 2 C19 6.29 19 10.58 19 15 C18.67 15 18.34 15 18 15 C17.67 11.04 17.34 7.08 17 3 C16.071875 3.185625 15.14375 3.37125 14.1875 3.5625 C11 4 11 4 8 3 C7.67 3.66 7.34 4.32 7 5 C7 4.01 7 3.02 7 2 C4.69 1.67 2.38 1.34 0 1 C0 0.67 0 0.34 0 0 Z " fill="#595183" transform="translate(68,187)"/>
<path d="M0 0 C1.09658936 3.28976808 0.79953138 4.71303767 0 8 C2.97 8.495 2.97 8.495 6 9 C6.68707555 6.50935112 7 4.62113708 7 2 C10 3 10 3 11.6875 6.375 C13 10 13 10 13 13 C9.04 13 5.08 13 1 13 C-3.03471698 6.64226415 -3.03471698 6.64226415 -2.875 3.6875 C-2 2 -2 2 0 0 Z " fill="#945EA3" transform="translate(70,161)"/>
<path d="M0 0 C0.81559387 0.02361099 1.63118774 0.04722198 2.47149658 0.07154846 C5.0697264 0.14796058 7.66764114 0.23208109 10.265625 0.31640625 C12.02993264 0.36964944 13.79425553 0.42238968 15.55859375 0.47460938 C19.87780269 0.60354524 24.19674528 0.73939365 28.515625 0.87890625 C29.010625 2.36390625 29.010625 2.36390625 29.515625 3.87890625 C15.655625 3.54890625 1.795625 3.21890625 -12.484375 2.87890625 C-12.484375 2.21890625 -12.484375 1.55890625 -12.484375 0.87890625 C-8.29876792 -0.30740298 -4.31134308 -0.14778712 0 0 Z " fill="#D66041" transform="translate(74.484375,45.12109375)"/>
<path d="M0 0 C0 4.66902616 -1.95356515 7.89201016 -5.125 11.25 C-5.74375 11.8275 -6.3625 12.405 -7 13 C-8.16101256 15.32202512 -8.04171402 16.49339779 -7.9375 19.0625 C-7.88340044 23.83099017 -8.36919252 28.49011266 -10 33 C-10.99 33.495 -10.99 33.495 -12 34 C-12.52446824 21.6070098 -11.4022966 12.47446466 -3 3 C-2.01036187 1.98974441 -1.01348129 0.98633447 0 0 Z " fill="#CD4B56" transform="translate(51,60)"/>
<path d="M0 0 C-0.75 1.9375 -0.75 1.9375 -2 4 C-4.13002316 4.79875868 -5.73304965 5 -8 5 C-8.1546875 5.8353125 -8.1546875 5.8353125 -8.3125 6.6875 C-9.14704296 9.49459905 -10.31772698 11.60599609 -12 14 C-12.99 14.33 -13.98 14.66 -15 15 C-14.97679687 15.62648438 -14.95359375 16.25296875 -14.9296875 16.8984375 C-14.90261719 18.12433594 -14.90261719 18.12433594 -14.875 19.375 C-14.85179687 20.18710937 -14.82859375 20.99921875 -14.8046875 21.8359375 C-15 24 -15 24 -17 26 C-17.33 25.67 -17.66 25.34 -18 25 C-17.8687407 16.73066383 -15.16146996 10.27897029 -9.33984375 4.29296875 C-6.2134859 1.62749904 -4.13627792 0 0 0 Z " fill="#D96A3D" transform="translate(27,34)"/>
<path d="M0 0 C0.66 0 1.32 0 2 0 C2 0.66 2 1.32 2 2 C2.99 2.33 3.98 2.66 5 3 C5.66 2.34 6.32 1.68 7 1 C13 10.71428571 13 10.71428571 13 15 C12.34 15 11.68 15 11 15 C7 9 7 9 7 6 C6.01 6 5.02 6 4 6 C3.01 7.485 3.01 7.485 2 9 C-0.97 8.505 -0.97 8.505 -4 8 C-4 7.01 -4 6.02 -4 5 C-2.68 4.67 -1.36 4.34 0 4 C0 2.68 0 1.36 0 0 Z " fill="#F25F33" transform="translate(108,41)"/>
<path d="M0 0 C2.4525805 2.4525805 2.98703035 4.46225248 4.0625 7.75 C4.40410156 8.77609375 4.74570313 9.8021875 5.09765625 10.859375 C6.84550458 16.94279518 7.13164707 22.59857383 7.0625 28.875 C7.05798828 29.65875 7.05347656 30.4425 7.04882812 31.25 C7.03714093 33.16670014 7.01920908 35.08336048 7 37 C6.67 37 6.34 37 6 37 C5.95101562 36.36191406 5.90203125 35.72382813 5.8515625 35.06640625 C5.77679688 34.24011719 5.70203125 33.41382813 5.625 32.5625 C5.52058594 31.32693359 5.52058594 31.32693359 5.4140625 30.06640625 C5.27742188 29.38449219 5.14078125 28.70257813 5 28 C4.34 27.67 3.68 27.34 3 27 C3.03480469 25.98679688 3.06960937 24.97359375 3.10546875 23.9296875 C3.13362595 22.5781417 3.16092403 21.22657781 3.1875 19.875 C3.21263672 19.20984375 3.23777344 18.5446875 3.26367188 17.859375 C3.33393577 13.08143047 2.28233789 10.13673742 0 6 C-0.1875 2.625 -0.1875 2.625 0 0 Z " fill="#9F5089" transform="translate(116,128)"/>
<path d="M0 0 C3.52067351 -0.08782542 7.04106144 -0.14066643 10.5625 -0.1875 C11.55314453 -0.21263672 12.54378906 -0.23777344 13.56445312 -0.26367188 C19.48348005 -0.3226655 23.83357773 -0.00901517 29 3 C29.9375 5.6875 29.9375 5.6875 30 8 C29.236875 7.360625 28.47375 6.72125 27.6875 6.0625 C23.97605697 3.21418326 21.22481853 2.85952337 16.67578125 2.68359375 C15.64775391 2.64169922 14.61972656 2.59980469 13.56054688 2.55664062 C11.95276367 2.49766602 11.95276367 2.49766602 10.3125 2.4375 C9.22904297 2.39431641 8.14558594 2.35113281 7.02929688 2.30664062 C4.35299209 2.20053162 1.67659474 2.09847639 -1 2 C-0.67 1.34 -0.34 0.68 0 0 Z " fill="#CE4A7C" transform="translate(49,116)"/>
<path d="M0 0 C0.99 0.99 1.98 1.98 3 3 C3.66 2.01 4.32 1.02 5 0 C5.66 0.33 6.32 0.66 7 1 C7.125 3.875 7.125 3.875 7 7 C6.34 7.66 5.68 8.32 5 9 C4.67 8.34 4.34 7.68 4 7 C3.01 6.67 2.02 6.34 1 6 C1.33 7.65 1.66 9.3 2 11 C1.01 11.33 0.02 11.66 -1 12 C-1.99 11.01 -2.98 10.02 -4 9 C-3.16244776 6.48734329 -2.20811696 4.34072661 -1 2 C-0.67 1.34 -0.34 0.68 0 0 Z " fill="#F14249" transform="translate(111,71)"/>
<path d="M0 0 C2.51720164 1.89652178 3.00302327 3.01301459 3.73046875 6.14453125 C3.88128906 7.35496094 4.03210938 8.56539062 4.1875 9.8125 C4.34605469 11.01519531 4.50460938 12.21789062 4.66796875 13.45703125 C5.5489774 22.85791173 5.5489774 22.85791173 3 27 C2.34 27 1.68 27 1 27 C1.33 27.99 1.66 28.98 2 30 C1.34 30.66 0.68 31.32 0 32 C-0.99 31.34 -1.98 30.68 -3 30 C-2.54625 29.443125 -2.0925 28.88625 -1.625 28.3125 C2.09542163 23.01805383 2.54751834 18.31751936 2 12 C1.44707352 9.29256691 0.72404904 6.66993085 0 4 C0 2.68 0 1.36 0 0 Z " fill="#9D508C" transform="translate(109,140)"/>
<path d="M0 0 C3.44498764 3.3615739 3.47167282 6.58813299 3.6875 11.25 C3.78611328 13.14492188 3.78611328 13.14492188 3.88671875 15.078125 C3.92410156 16.04234375 3.96148437 17.0065625 4 18 C3.34 18 2.68 18 2 18 C0.5192152 15.0384304 0.64685963 12.16493705 0.4375 8.875 C0.35371094 7.59367187 0.26992188 6.31234375 0.18359375 4.9921875 C0.12300781 4.00476563 0.06242187 3.01734375 0 2 C-1.98 2 -3.96 2 -6 2 C-6.33 4.97 -6.66 7.94 -7 11 C-7.33 11 -7.66 11 -8 11 C-8.36334661 3.61195219 -8.36334661 3.61195219 -6.8125 1 C-4.30538007 -0.38323858 -2.8180173 -0.49315303 0 0 Z " fill="#E38042" transform="translate(53,15)"/>
<path d="M0 0 C4 0 4 0 5.75 1.3125 C7 3 7 3 7 6 C8.32 6.33 9.64 6.66 11 7 C11 7.99 11 8.98 11 10 C12.1446875 10.1546875 12.1446875 10.1546875 13.3125 10.3125 C16.17059424 11.04364039 17.15742885 11.76951913 19 14 C18.67 14.66 18.34 15.32 18 16 C10.33813654 13.05312944 4.70593059 6.5584239 0 0 Z " fill="#D64D59" transform="translate(59,71)"/>
<path d="M0 0 C0.33 0 0.66 0 1 0 C1.05429278 2.70860665 1.09381211 5.41610901 1.125 8.125 C1.15013672 9.26582031 1.15013672 9.26582031 1.17578125 10.4296875 C1.21546246 15.03270731 0.75907577 18.66464004 -1 23 C-1.8971875 22.4740625 -1.8971875 22.4740625 -2.8125 21.9375 C-5.10813214 20.66695302 -5.10813214 20.66695302 -8 22 C-8 21.01 -8 20.02 -8 19 C-6.68 18.34 -5.36 17.68 -4 17 C-4 17.66 -4 18.32 -4 19 C-3.34 19 -2.68 19 -2 19 C-1.34 12.73 -0.68 6.46 0 0 Z " fill="#AC4782" transform="translate(91,125)"/>
<path d="M0 0 C-0.33 0.66 -0.66 1.32 -1 2 C-2.890625 2.23828125 -2.890625 2.23828125 -5.25 2.3125 C-8.94292316 2.64075984 -9.85026822 2.87956357 -12.875 5.3125 C-15.50041876 8.60924018 -15.50041876 8.60924018 -18 12 C-18.5501264 8.25914048 -18.01848345 7.02772517 -15.875 3.8125 C-11.21041109 -1.2713778 -6.52977685 -1.30595537 0 0 Z " fill="#B34A88" transform="translate(38,140)"/>
<path d="M0 0 C1.22589844 0.47566406 1.22589844 0.47566406 2.4765625 0.9609375 C6.51234559 2.15109083 10.19509032 2.44359343 14.375 2.625 C15.11105469 2.66367188 15.84710938 2.70234375 16.60546875 2.7421875 C18.40327406 2.83557998 20.20160108 2.9188371 22 3 C18.77208445 5.1519437 17.71599191 5.20086443 14 5 C14 5.66 14 6.32 14 7 C11.36 6.67 8.72 6.34 6 6 C5.67 5.01 5.34 4.02 5 3 C3.35 2.67 1.7 2.34 0 2 C0 1.34 0 0.68 0 0 Z " fill="#DD4857" transform="translate(83,75)"/>
<path d="M0 0 C1.65 0 3.3 0 5 0 C5 3.28317149 4.55927667 6.31713419 4.0625 9.5625 C3.88847656 10.71878906 3.71445313 11.87507812 3.53515625 13.06640625 C3 16 3 16 2 18 C1.34 18 0.68 18 0 18 C0.08378906 17.28714844 0.16757813 16.57429688 0.25390625 15.83984375 C0.84189161 10.30980427 1.09194306 5.45971529 0 0 Z " fill="#B14E7B" transform="translate(79,125)"/>
<path d="M0 0 C0.67095703 0.58007812 0.67095703 0.58007812 1.35546875 1.171875 C4.8521026 4.18390075 8.37407463 7.14321031 12 10 C10.35 10.33 8.7 10.66 7 11 C7 10.34 7 9.68 7 9 C4.69 9.33 2.38 9.66 0 10 C0.33 9.01 0.66 8.02 1 7 C1 6.01 1 5.02 1 4 C0.01 3.34 -0.98 2.68 -2 2 C-1.34 2 -0.68 2 0 2 C0 1.34 0 0.68 0 0 Z " fill="#E04B50" transform="translate(71,65)"/>
<path d="M0 0 C4.1931042 0.81156856 8.37961868 1.6328276 12 4 C12.99 5.485 12.99 5.485 14 7 C14.99 7.33 15.98 7.66 17 8 C17.6875 10.0625 17.6875 10.0625 18 12 C17.31035156 11.52949219 16.62070312 11.05898437 15.91015625 10.57421875 C10.04197919 6.68624958 4.78333343 3.89043719 -2 2 C-1.34 1.34 -0.68 0.68 0 0 Z " fill="#A04E83" transform="translate(40,141)"/>
<path d="M0 0 C0.66 0 1.32 0 2 0 C2 0.66 2 1.32 2 2 C3.65 1.34 5.3 0.68 7 0 C6.979375 1.0725 6.95875 2.145 6.9375 3.25 C6.9857984 6.14790424 7.13155885 8.28612141 8 11 C7.01 10.67 6.02 10.34 5 10 C5 9.34 5 8.68 5 8 C4.34 8 3.68 8 3 8 C0 2.25 0 2.25 0 0 Z " fill="#BA4384" transform="translate(105,132)"/>
<path d="M0 0 C1.99609375 0.26953125 1.99609375 0.26953125 4.4375 0.8125 C5.64212891 1.06966797 5.64212891 1.06966797 6.87109375 1.33203125 C9 2 9 2 11 4 C7.5647952 6.29013653 6.014669 6.17842973 2 6 C1.87625 5.360625 1.7525 4.72125 1.625 4.0625 C1.315625 3.0415625 1.315625 3.0415625 1 2 C0.34 1.67 -0.32 1.34 -1 1 C-0.67 0.67 -0.34 0.34 0 0 Z " fill="#B83F7B" transform="translate(39,128)"/>
<path d="M0 0 C1.46184058 0.22860058 2.91955419 0.48370392 4.375 0.75 C5.59316406 0.95882813 5.59316406 0.95882813 6.8359375 1.171875 C9 2 9 2 10.2890625 4.078125 C10.64097656 5.02945313 10.64097656 5.02945313 11 6 C9.54176788 6.0270043 8.08339325 6.04639787 6.625 6.0625 C5.81289063 6.07410156 5.00078125 6.08570313 4.1640625 6.09765625 C2 6 2 6 0 5 C0 3.35 0 1.7 0 0 Z " fill="#E05F1D" transform="translate(45,28)"/>
<path d="M0 0 C2.10762603 2.10762603 2.84505738 3.65908025 4 6.375 C5.25192661 9.29942231 6.55131355 12.1673006 8 15 C7.01 15.495 7.01 15.495 6 16 C4.5 14.625 4.5 14.625 3 13 C3 12.34 3 11.68 3 11 C2.34 11 1.68 11 1 11 C0.67 7.37 0.34 3.74 0 0 Z " fill="#CE4057" transform="translate(21,77)"/>
<path d="M0 0 C1.98 0 3.96 0 6 0 C6.33 0.66 6.66 1.32 7 2 C4.54545455 7.72727273 4.54545455 7.72727273 2 9 C1.34 6.03 0.68 3.06 0 0 Z " fill="#F35835" transform="translate(51,49)"/>
<path d="M0 0 C0.33 0 0.66 0 1 0 C1 3.63 1 7.26 1 11 C0.34 11 -0.32 11 -1 11 C-1.33 13.31 -1.66 15.62 -2 18 C-3.65 18 -5.3 18 -7 18 C-6.38125 17.113125 -5.7625 16.22625 -5.125 15.3125 C-1.86782038 10.23513176 -0.86315849 7.02102651 -1 1 C-0.67 0.67 -0.34 0.34 0 0 Z " fill="#C45357" transform="translate(112,60)"/>
<path d="M0 0 C1.28583984 0.00580078 1.28583984 0.00580078 2.59765625 0.01171875 C4.9375 0.3125 4.9375 0.3125 7.9375 2.3125 C7.2775 2.9725 6.6175 3.6325 5.9375 4.3125 C5.9375 3.6525 5.9375 2.9925 5.9375 2.3125 C5.133125 2.4775 4.32875 2.6425 3.5 2.8125 C-0.72137352 3.40497348 -4.80914545 3.39756709 -9.0625 3.3125 C-5.98853295 0.60940601 -4.08036274 -0.08000711 0 0 Z " fill="#EF6138" transform="translate(43.0625,43.6875)"/>
<path d="M0 0 C4.39605737 3.48652826 5.8277358 7.67705219 7 13 C7.21196866 15.72853275 7.1495823 18.25765791 7 21 C4.51742932 18.51742932 4.55441297 17.17933613 4.0625 13.75 C3.33845808 9.33044814 2.21727428 5.93062258 0 2 C0 1.34 0 0.68 0 0 Z " fill="#D1624E" transform="translate(116,42)"/>
<path d="M0 0 C1.14926266 0.95421808 2.29430541 1.91352045 3.4375 2.875 C4.07558594 3.40867187 4.71367188 3.94234375 5.37109375 4.4921875 C7 6 7 6 8 8 C6.68 9.32 5.36 10.64 4 12 C3.34 11.34 2.68 10.68 2 10 C2.375 7.875 2.375 7.875 3 6 C2.34 5.67 1.68 5.34 1 5 C0.375 2.4375 0.375 2.4375 0 0 Z " fill="#CE345E" transform="translate(29,92)"/>
<path d="M0 0 C2 2 2 2 2 5 C-1.96 5 -5.92 5 -10 5 C-10.33 4.34 -10.66 3.68 -11 3 C-10.28972656 2.86722656 -9.57945313 2.73445312 -8.84765625 2.59765625 C-7.92855469 2.42105469 -7.00945312 2.24445313 -6.0625 2.0625 C-4.68771484 1.80146484 -4.68771484 1.80146484 -3.28515625 1.53515625 C-1.04710156 1.22285012 -1.04710156 1.22285012 0 0 Z " fill="#81539A" transform="translate(81,169)"/>
<path d="M0 0 C3.02084307 1.51042153 3.68510653 3.89876211 5.1875 6.875 C5.73792969 7.94492188 6.28835937 9.01484375 6.85546875 10.1171875 C8 13 8 13 7 16 C0.29612756 5.62642369 0.29612756 5.62642369 0 0 Z " fill="#C2415A" transform="translate(12,84)"/>
<path d="M0 0 C3.3 0 6.6 0 10 0 C10.33 0.99 10.66 1.98 11 3 C7.7 3 4.4 3 1 3 C0.67 2.01 0.34 1.02 0 0 Z " fill="#DF5026" transform="translate(50,46)"/>
<path d="M0 0 C0.33 0 0.66 0 1 0 C1 1.65 1 3.3 1 5 C0.34 5 -0.32 5 -1 5 C-0.97679687 5.62648438 -0.95359375 6.25296875 -0.9296875 6.8984375 C-0.91164063 7.71570312 -0.89359375 8.53296875 -0.875 9.375 C-0.85179687 10.18710937 -0.82859375 10.99921875 -0.8046875 11.8359375 C-1 14 -1 14 -3 16 C-3.33 15.67 -3.66 15.34 -4 15 C-3.95277358 9.39186272 -2.87174908 4.86948756 0 0 Z " fill="#D45D4C" transform="translate(13,44)"/>
<path d="M0 0 C4.75 0.75 4.75 0.75 7 3 C6.34 3 5.68 3 5 3 C5.33 3.66 5.66 4.32 6 5 C6.039992 6.99960012 6.04346799 9.00047242 6 11 C4.0549 8.08235 3.54723683 6.37462715 3 3 C2.01 2.67 1.02 2.34 0 2 C0 1.34 0 0.68 0 0 Z " fill="#CC584A" transform="translate(106,49)"/>
<path d="M0 0 C2.48262432 2.48262432 3.07286975 4.61775287 4.1875 7.9375 C4.55230469 8.99839844 4.91710937 10.05929688 5.29296875 11.15234375 C6 14 6 14 5 17 C4.15238178 15.29870914 3.3225132 13.58856916 2.5 11.875 C2.0359375 10.92367187 1.571875 9.97234375 1.09375 8.9921875 C-0.07748116 5.78803369 -0.20076124 3.38282687 0 0 Z " fill="#A34B78" transform="translate(116,128)"/>
<path d="M0 0 C2.31 0.33 4.62 0.66 7 1 C7 2.98 7 4.96 7 7 C4.5 5.625 4.5 5.625 2 4 C2 3.34 2 2.68 2 2 C1.34 2 0.68 2 0 2 C0 1.34 0 0.68 0 0 Z " fill="#C23368" transform="translate(21,102)"/>
<path d="M0 0 C0.33 0 0.66 0 1 0 C1.16435547 1.10408203 1.16435547 1.10408203 1.33203125 2.23046875 C2.46860121 9.55865231 2.46860121 9.55865231 6 16 C4.11328125 15.7265625 4.11328125 15.7265625 2 15 C-0.45306277 11.36911287 -1.30262117 7.30584818 -0.6875 3 C-0.460625 2.01 -0.23375 1.02 0 0 Z " fill="#84578A" transform="translate(19,155)"/>
<path d="M0 0 C0.66 0 1.32 0 2 0 C2.33 0.99 2.66 1.98 3 3 C2.34 3.66 1.68 4.32 1 5 C0.83312552 7.58354218 0.83312552 7.58354218 1 10 C0.34 10 -0.32 10 -1 10 C-1 11.98 -1 13.96 -1 16 C-1.33 16 -1.66 16 -2 16 C-2.2358396 10.22192976 -1.86783046 5.48675196 0 0 Z " fill="#995087" transform="translate(10,146)"/>
<path d="M0 0 C5.1596937 1.92223883 8.25572134 3.80186938 12 8 C11.67 8.66 11.34 9.32 11 10 C9.2925002 8.71937515 7.62626404 7.38232443 6 6 C6 5.34 6 4.68 6 4 C3.69 3.67 1.38 3.34 -1 3 C-0.67 2.01 -0.34 1.02 0 0 Z " fill="#E57244" transform="translate(104,33)"/>
<path d="M0 0 C4.74018901 1.83491188 9.36413251 3.91941459 14 6 C14 6.66 14 7.32 14 8 C7.96719209 6.3833652 4.049191 4.83290538 0 0 Z " fill="#A7365F" transform="translate(28,109)"/>
<path d="M0 0 C1.98 1.65 3.96 3.3 6 5 C5.01 5.99 4.02 6.98 3 8 C2.731875 7.38125 2.46375 6.7625 2.1875 6.125 C1.04443152 3.7004767 1.04443152 3.7004767 -2 2 C-1.34 2 -0.68 2 0 2 C0 1.34 0 0.68 0 0 Z M0 7 C0.66 7.66 1.32 8.32 2 9 C1.34 9 0.68 9 0 9 C0 8.34 0 7.68 0 7 Z " fill="#C74648" transform="translate(71,65)"/>
<path d="M0 0 C0.33 0 0.66 0 1 0 C1 1.98 1 3.96 1 6 C0.34 6 -0.32 6 -1 6 C-0.67 6.99 -0.34 7.98 0 9 C-0.66 9.66 -1.32 10.32 -2 11 C-2.99 10.34 -3.98 9.68 -5 9 C-4.319375 8.1646875 -4.319375 8.1646875 -3.625 7.3125 C-1.96266232 4.94686561 -0.97855457 2.70984342 0 0 Z " fill="#735191" transform="translate(111,161)"/>
<path d="M0 0 C0.33 0 0.66 0 1 0 C1.20086443 3.71599191 1.1519437 4.77208445 -1 8 C-2.65 5.69 -4.3 3.38 -6 1 C-4.68 1.33 -3.36 1.66 -2 2 C-1.34 1.34 -0.68 0.68 0 0 Z " fill="#BC3B76" transform="translate(105,124)"/>
<path d="M0 0 C3.37462715 0.54723683 5.08235 1.0549 8 3 C7.67 4.32 7.34 5.64 7 7 C6.401875 6.360625 5.80375 5.72125 5.1875 5.0625 C3.09189663 2.79689611 3.09189663 2.79689611 0 2 C0 1.34 0 0.68 0 0 Z " fill="#BF4270" transform="translate(71,117)"/>
<path d="M0 0 C0.99 0 1.98 0 3 0 C3 2 3 2 0.625 4.4375 C-0.24125 5.283125 -1.1075 6.12875 -2 7 C-2.66 7.99 -3.32 8.98 -4 10 C-4.39801392 6.5173782 -4.12373826 5.19200764 -2.1875 2.1875 C-1.465625 1.465625 -0.74375 0.74375 0 0 Z " fill="#9E5182" transform="translate(24,142)"/>
<path d="M0 0 C0 0.99 0 1.98 0 3 C-1.32 3 -2.64 3 -4 3 C-4.33 3.66 -4.66 4.32 -5 5 C-5.99 4.34 -6.98 3.68 -8 3 C-3.375 0 -3.375 0 0 0 Z " fill="#B0447A" transform="translate(28,128)"/>
<path d="M0 0 C2.66735273 2.48952921 4.55746343 4.63408134 6 8 C3.03 7.505 3.03 7.505 0 7 C0 4.69 0 2.38 0 0 Z " fill="#C75D48" transform="translate(65,57)"/>
<path d="M0 0 C0.66 0 1.32 0 2 0 C0.7251791 2.84383123 -0.45137078 5.13754018 -3 7 C-5.1875 6.6875 -5.1875 6.6875 -7 6 C-6.360625 5.896875 -5.72125 5.79375 -5.0625 5.6875 C-4.381875 5.460625 -3.70125 5.23375 -3 5 C-2.67 4.01 -2.34 3.02 -2 2 C-1.34 1.34 -0.68 0.68 0 0 Z " fill="#866EAD" transform="translate(115,177)"/>
<path d="M0 0 C3.93846154 4.30769231 3.93846154 4.30769231 4.25 7.8125 C4.1675 8.534375 4.085 9.25625 4 10 C1.2027092 7.93243723 0.97307727 6.85559629 0.3125 3.3125 C0.209375 2.219375 0.10625 1.12625 0 0 Z " fill="#BE4077" transform="translate(112,121)"/>
<path d="M0 0 C1.65 0 3.3 0 5 0 C5.33 1.32 5.66 2.64 6 4 C5.01 4.33 4.02 4.66 3 5 C3 4.34 3 3.68 3 3 C2.34 3 1.68 3 1 3 C0.67 2.01 0.34 1.02 0 0 Z " fill="#CC3B83" transform="translate(104,129)"/>
<path d="M0 0 C4.95 0 9.9 0 15 0 C11.70915707 2.19389529 9.90732442 2.69354318 6 3 C2.625 2.0625 2.625 2.0625 0 1 C0 0.67 0 0.34 0 0 Z " fill="#BE4657" transform="translate(90,78)"/>
<path d="M0 0 C0 3.58534593 -1.02362045 5.07495826 -3 8 C-3.33 8 -3.66 8 -4 8 C-3.67 5.69 -3.34 3.38 -3 1 C-2.01 0.67 -1.02 0.34 0 0 Z " fill="#EB693C" transform="translate(18,40)"/>
<path d="M0 0 C1.65 0 3.3 0 5 0 C5 3 5 3 4 5 C3.01 5 2.02 5 1 5 C0.67 3.35 0.34 1.7 0 0 Z " fill="#C93D7E" transform="translate(79,125)"/>
<path d="M0 0 C0.99 0 1.98 0 3 0 C3.33 0.99 3.66 1.98 4 3 C2.68 3.33 1.36 3.66 0 4 C0 2.68 0 1.36 0 0 Z M-1 4 C-0.34 5.32 0.32 6.64 1 8 C0.01 7.67 -0.98 7.34 -2 7 C-1.67 6.01 -1.34 5.02 -1 4 Z " fill="#B04C96" transform="translate(85,145)"/>
<path d="M0 0 C0.33 0 0.66 0 1 0 C1.125 2.375 1.125 2.375 1 5 C0.34 5.66 -0.32 6.32 -1 7 C-1.99 6.67 -2.98 6.34 -4 6 C-3.34 4.68 -2.68 3.36 -2 2 C-1.34 2 -0.68 2 0 2 C0 1.34 0 0.68 0 0 Z " fill="#E04758" transform="translate(117,78)"/>
<path d="M0 0 C0.99 0.33 1.98 0.66 3 1 C2.625 3.9375 2.625 3.9375 2 7 C1.01 7.495 1.01 7.495 0 8 C0 5.36 0 2.72 0 0 Z " fill="#F04C48" transform="translate(10,67)"/>
</svg>
